<svg width="25" height="24" viewBox="0 0 25 24" fill="none" xmlns="http://www.w3.org/2000/svg">
<path d="M2.625 10.9384C2.625 9.71422 3.18558 8.55744 4.14642 7.79888L9.64642 3.45677C11.0997 2.30948 13.1503 2.30948 14.6036 3.45677L20.1036 7.79888C21.0644 8.55744 21.625 9.71422 21.625 10.9384V17.5C21.625 19.7091 19.8341 21.5 17.625 21.5H16.125C15.5727 21.5 15.125 21.0523 15.125 20.5V17.5C15.125 16.3954 14.2296 15.5 13.125 15.5H11.125C10.0204 15.5 9.125 16.3954 9.125 17.5V20.5C9.125 21.0523 8.67728 21.5 8.125 21.5H6.625C4.41586 21.5 2.625 19.7091 2.625 17.5L2.625 10.9384Z" stroke="#020C27" stroke-width="1.5"/>
</svg>
