<svg width="25" height="24" viewBox="0 0 25 24" fill="none" xmlns="http://www.w3.org/2000/svg">
<path d="M2.86403 20.0292L2.15688 19.7793H2.15688L2.86403 20.0292ZM4.39527 21.5605L4.64515 22.2676H4.64515L4.39527 21.5605ZM7.78317 20.7518L7.41951 21.4077L7.78317 20.7518ZM3.72604 16.5662L4.39304 16.2233L3.72604 16.5662ZM3.79231 17.4022L4.49946 17.6521L3.79231 17.4022ZM3.375 12C3.375 6.89137 7.51637 2.75 12.625 2.75V1.25C6.68794 1.25 1.875 6.06294 1.875 12H3.375ZM4.39304 16.2233C3.74251 14.9581 3.375 13.523 3.375 12H1.875C1.875 13.7671 2.30197 15.4367 3.05904 16.9092L4.39304 16.2233ZM3.57118 20.2791L4.49946 17.6521L3.08516 17.1523L2.15688 19.7793L3.57118 20.2791ZM4.14539 20.8533C3.78872 20.9793 3.44514 20.6358 3.57118 20.2791L2.15688 19.7793C1.61073 21.3249 3.09955 22.8138 4.64515 22.2676L4.14539 20.8533ZM6.66798 19.9619L4.14539 20.8533L4.64515 22.2676L7.16774 21.3762L6.66798 19.9619ZM12.625 21.25C10.9989 21.25 9.47298 20.8311 8.14684 20.0958L7.41951 21.4077C8.96251 22.2632 10.738 22.75 12.625 22.75V21.25ZM21.875 12C21.875 17.1086 17.7336 21.25 12.625 21.25V22.75C18.5621 22.75 23.375 17.9371 23.375 12H21.875ZM12.625 2.75C17.7336 2.75 21.875 6.89137 21.875 12H23.375C23.375 6.06294 18.5621 1.25 12.625 1.25V2.75ZM7.16774 21.3762C7.23323 21.3531 7.3251 21.3554 7.41951 21.4077L8.14684 20.0958C7.71123 19.8543 7.17389 19.7832 6.66798 19.9619L7.16774 21.3762ZM3.05904 16.9092C3.1064 17.0013 3.10743 17.0893 3.08516 17.1523L4.49946 17.6521C4.67133 17.1657 4.61214 16.6494 4.39304 16.2233L3.05904 16.9092Z" fill="#212121"/>
<circle cx="7.67505" cy="12.0498" r="1.25" fill="#212121"/>
<circle cx="12.675" cy="12.0498" r="1.25" fill="#212121"/>
<circle cx="17.675" cy="12.0498" r="1.25" fill="#212121"/>
</svg>
