<svg width="32" height="32" viewBox="0 0 32 32" fill="none" xmlns="http://www.w3.org/2000/svg">
<path d="M27 4H5C2.79086 4 1 5.79086 1 8V24C1 26.2091 2.79086 28 5 28H27C29.2091 28 31 26.2091 31 24V8C31 5.79086 29.2091 4 27 4Z" fill="#DB362F"/>
<path opacity="0.15" d="M27 4H5C2.791 4 1 5.791 1 8V24C1 26.209 2.791 28 5 28H27C29.209 28 31 26.209 31 24V8C31 5.791 29.209 4 27 4ZM30 24C30 25.654 28.654 27 27 27H5C3.346 27 2 25.654 2 24V8C2 6.346 3.346 5 5 5H27C28.654 5 30 6.346 30 8V24Z" fill="black"/>
<path d="M7.95808 10.1519L7.19008 7.78589L6.42108 10.1519H3.93408L5.94608 11.6139L5.17708 13.9789L7.19008 12.5169L9.20208 13.9789L8.43308 11.6139L10.4461 10.1519H7.95808Z" fill="#FFFF00"/>
<path d="M12.725 8.18708L13.152 8.89808L13.224 8.07208L14.032 7.88608L13.269 7.56208L13.342 6.73608L12.798 7.36108L12.035 7.03708L12.461 7.74808L11.917 8.37308L12.725 8.18708Z" fill="#FFFF00"/>
<path d="M14.8649 10.3719L14.9819 11.1929L15.3699 10.4599L16.1869 10.6019L15.6099 10.0069L15.9969 9.27395L15.2529 9.63895L14.6749 9.04395L14.7929 9.86495L14.0479 10.2299L14.8649 10.3719Z" fill="#FFFF00"/>
<path d="M15.5971 13.6121L16.2501 13.1011L15.4211 13.1301L15.1371 12.3521L14.9091 13.1491L14.0811 13.1791L14.7691 13.6421L14.5411 14.4391L15.1941 13.9281L15.8811 14.3911L15.5971 13.6121Z" fill="#FFFF00"/>
<path d="M13.2599 15.535L13.2979 14.707L12.7799 15.354L12.0049 15.062L12.4599 15.754L11.9419 16.402L12.7419 16.182L13.1979 16.875L13.2359 16.047L14.0359 15.827L13.2599 15.535Z" fill="#FFFF00"/>
<path opacity="0.2" d="M27 5H5C3.343 5 2 6.343 2 8V9C2 7.343 3.343 6 5 6H27C28.657 6 30 7.343 30 9V8C30 6.343 28.657 5 27 5Z" fill="white"/>
</svg>
