<svg width="20" height="20" viewBox="0 0 20 20" fill="none" xmlns="http://www.w3.org/2000/svg">
<path d="M1.99975 2L8.48175 10.101C8.76549 10.4558 8.91996 10.8967 8.91975 11.351V18L10.9198 16.5V11.35C10.9198 10.896 11.0742 10.4556 11.3578 10.101L17.8398 2H2.00075H1.99975ZM1.99975 0H17.8398C18.2165 4.70007e-05 18.5856 0.106524 18.9045 0.307166C19.2235 0.507808 19.4792 0.794454 19.6423 1.13409C19.8055 1.47372 19.8693 1.85253 19.8266 2.22687C19.7839 2.60122 19.6362 2.95588 19.4008 3.25L12.9198 11.35V16.5C12.9198 16.8105 12.8475 17.1167 12.7086 17.3944C12.5698 17.6721 12.3681 17.9137 12.1198 18.1L10.1198 19.6C9.82261 19.8229 9.46929 19.9586 9.09936 19.9919C8.72944 20.0253 8.35754 19.955 8.02532 19.7889C7.69311 19.6227 7.41372 19.3674 7.21845 19.0515C7.02318 18.7355 6.91975 18.3714 6.91975 18V11.35L0.438752 3.25C0.203265 2.95588 0.0556508 2.60122 0.0129105 2.22687C-0.0298297 1.85253 0.0340429 1.47372 0.197171 1.13409C0.3603 0.794454 0.616049 0.507808 0.93496 0.307166C1.25387 0.106524 1.62297 4.70007e-05 1.99975 0Z" fill="#0F172A"/>
</svg>
