<svg width="18" height="23" viewBox="0 0 18 23" fill="none" xmlns="http://www.w3.org/2000/svg">
<path d="M8.99891 12.4362C9.59566 12.4362 10.168 12.1842 10.5899 11.7357C11.0119 11.2872 11.249 10.6789 11.249 10.0446C11.249 9.41028 11.0119 8.80196 10.5899 8.35344C10.168 7.90493 9.59566 7.65295 8.99891 7.65295C8.40215 7.65295 7.82984 7.90493 7.40788 8.35344C6.98591 8.80196 6.74885 9.41028 6.74885 10.0446C6.74885 10.6789 6.98591 11.2872 7.40788 11.7357C7.82984 12.1842 8.40215 12.4362 8.99891 12.4362Z" fill="white"/>
<path d="M15.3632 2.80178H15.3641C18.8786 6.5375 18.8786 12.595 15.3641 16.3307L10.5012 21.4995C10.103 21.9224 9.56299 22.16 9 22.16C8.43701 22.16 7.89704 21.9224 7.49876 21.4995L2.63594 16.3307C-0.878647 12.595 -0.878647 6.5375 2.63594 2.80178C6.14963 -0.933928 11.8486 -0.933928 15.3632 2.80178ZM3.58996 3.81583C2.1555 5.34075 1.34964 7.40983 1.34964 9.56625C1.34964 11.7227 2.1555 13.7908 3.58996 15.3157L3.61067 15.3387L8.45279 20.4854C8.59774 20.6393 8.79423 20.7257 8.9991 20.7257C9.20397 20.7257 9.40046 20.6393 9.54541 20.4854L14.4082 15.3157C15.8258 13.7871 16.6172 11.7247 16.6099 9.57834C16.6027 7.43197 15.7974 5.37571 14.3695 3.85792C12.9417 2.34014 11.0072 1.48396 8.98791 1.47607C6.96859 1.46819 5.02824 2.30924 3.58996 3.81583Z" fill="white"/>
</svg>
