<svg width="25" height="28" viewBox="0 0 25 28" fill="none" xmlns="http://www.w3.org/2000/svg">
<path fill-rule="evenodd" clip-rule="evenodd" d="M8.65137 2.93714C9.11651 1.48331 10.4807 0 12.5014 0C14.5226 0 15.8854 1.48337 16.3541 2.93446C16.3565 2.93717 16.3596 2.94058 16.3636 2.94451C16.3733 2.95383 16.3841 2.96241 16.3944 2.96906C16.4023 2.97412 16.407 2.9763 16.4075 2.97656C17.5838 3.42727 18.9683 4.14721 20.0512 5.46535C21.1427 6.79408 21.8528 8.63862 21.8528 11.212C21.8528 13.7778 22.1437 15.1848 22.572 16.1507C22.9476 16.9976 23.4414 17.5543 24.1442 18.3465C24.2468 18.4622 24.3539 18.5829 24.4658 18.7103C25.7609 20.1868 24.5382 22.2607 22.5431 22.2607H2.46619C0.474735 22.2607 -0.768915 20.1976 0.537005 18.7103C0.64892 18.5828 0.756092 18.462 0.858805 18.3462C1.56145 17.5542 2.05538 16.9974 2.43129 16.1505C2.86002 15.1845 3.15159 13.7775 3.15323 11.212M8.65137 2.93714C8.64957 2.93912 8.64732 2.94146 8.64458 2.94411C8.63572 2.95265 8.62526 2.9609 8.61482 2.96759C8.60513 2.97381 8.59931 2.97623 8.59931 2.97624C7.42255 3.42723 6.03693 4.14606 4.95399 5.46387C3.8625 6.79209 3.15333 8.63692 3.15323 11.212M12.5014 1.93571C11.7007 1.93571 10.936 2.5571 10.6401 3.5046L10.6393 3.50701C10.4485 4.11208 9.92019 4.56367 9.39069 4.76637C9.39061 4.7664 9.39077 4.76634 9.39069 4.76637C8.39721 5.14714 7.38132 5.69652 6.60617 6.63979C5.83958 7.57263 5.23319 8.98261 5.23319 11.212C5.23153 13.8878 4.93228 15.5859 4.35372 16.8895C3.85039 18.0235 3.14778 18.8116 2.45065 19.5935C2.34934 19.7071 2.24815 19.8206 2.1477 19.935C2.10631 19.9822 2.09467 20.0209 2.09183 20.05C2.08863 20.083 2.09529 20.1224 2.11756 20.163C2.15621 20.2335 2.25244 20.325 2.46619 20.325H22.5431C22.7491 20.325 22.8438 20.2365 22.8832 20.1641C22.9254 20.0866 22.9202 20.0095 22.8551 19.935C22.7547 19.8207 22.6535 19.7073 22.5523 19.5937C21.8551 18.8117 21.1524 18.0235 20.6493 16.8892C20.0712 15.5855 19.7728 13.8878 19.7728 11.212C19.7728 8.98546 19.166 7.57497 18.3988 6.64103C17.6229 5.6966 16.6068 5.14625 15.6154 4.76641C15.08 4.56146 14.5573 4.10353 14.3676 3.50855L14.3668 3.50609C14.067 2.55664 13.3021 1.93571 12.5014 1.93571Z" fill="#D3DAED"/>
<path fill-rule="evenodd" clip-rule="evenodd" d="M8.34137 20.325C8.91574 20.325 9.38136 20.7583 9.38136 21.2929V22.2607C9.38136 23.0308 9.71006 23.7693 10.2952 24.3138C10.8803 24.8584 11.6738 25.1643 12.5013 25.1643C13.3288 25.1643 14.1223 24.8584 14.7074 24.3138C15.2926 23.7693 15.6213 23.0308 15.6213 22.2607V21.2929C15.6213 20.7583 16.0869 20.325 16.6612 20.325C17.2356 20.325 17.7012 20.7583 17.7012 21.2929V22.2607C17.7012 23.5442 17.1534 24.7751 16.1782 25.6826C15.203 26.5901 13.8804 27.1 12.5013 27.1C11.1222 27.1 9.79958 26.5901 8.82441 25.6826C7.84924 24.7751 7.30139 23.5442 7.30139 22.2607V21.2929C7.30139 20.7583 7.767 20.325 8.34137 20.325Z" fill="#D3DAED"/>
</svg>
