<svg width="22" height="20" viewBox="0 0 22 20" fill="none" xmlns="http://www.w3.org/2000/svg">
<path fill-rule="evenodd" clip-rule="evenodd" d="M8.0247 2.60184C5.08663 2.60184 2.70485 4.75088 2.70485 7.40184C2.70485 10.0528 5.08663 12.2018 8.0247 12.2018C10.9628 12.2018 13.3446 10.0528 13.3446 7.40184C13.3446 4.75088 10.9628 2.60184 8.0247 2.60184ZM0.0449219 7.40184C0.0449219 3.42539 3.61759 0.201843 8.0247 0.201843C12.4318 0.201843 16.0045 3.42539 16.0045 7.40184C16.0045 8.95684 15.4582 10.3967 14.5292 11.5737L20.9348 17.3533C21.4542 17.8219 21.4542 18.5817 20.9348 19.0504C20.4154 19.519 19.5733 19.519 19.054 19.0504L12.6484 13.2707C11.3439 14.1089 9.74811 14.6018 8.0247 14.6018C3.61759 14.6018 0.0449219 11.3783 0.0449219 7.40184Z" fill="#B6B6B6"/>
</svg>
