<svg width="32" height="32" viewBox="0 0 32 32" fill="none" xmlns="http://www.w3.org/2000/svg">
<path d="M27 4H5C2.79086 4 1 5.79086 1 8V24C1 26.2091 2.79086 28 5 28H27C29.2091 28 31 26.2091 31 24V8C31 5.79086 29.2091 4 27 4Z" fill="white"/>
<path d="M1.63818 5.846H30.3622C29.6512 4.738 28.4152 4 27.0002 4H5.00018C3.58618 4 2.35018 4.738 1.63818 5.846Z" fill="#A62842"/>
<path d="M2.03 7.69189C2.022 7.79489 2 7.89389 2 7.99989V9.53889H31V7.99989C31 7.89489 30.978 7.79589 30.97 7.69189H2.03Z" fill="#A62842"/>
<path d="M2 11.385H31V13.231H2V11.385Z" fill="#A62842"/>
<path d="M2 15.0769H31V16.9229H2V15.0769Z" fill="#A62842"/>
<path d="M1 18.769H31V20.615H1V18.769Z" fill="#A62842"/>
<path d="M1 23.9999C1 24.1049 1.023 24.2039 1.031 24.3079H30.969C30.977 24.2049 31 24.1059 31 23.9999V22.4609H1V23.9999Z" fill="#A62842"/>
<path d="M30.3622 26.1541H1.63818C2.34918 27.2621 3.58518 28.0001 5.00018 28.0001H27.0002C28.4142 28.0001 29.6502 27.2621 30.3622 26.1541Z" fill="#A62842"/>
<path d="M5 4H16V16.923H1V8C1 5.792 2.792 4 5 4Z" fill="#102D5E"/>
<path opacity="0.15" d="M27 4H5C2.791 4 1 5.791 1 8V24C1 26.209 2.791 28 5 28H27C29.209 28 31 26.209 31 24V8C31 5.791 29.209 4 27 4ZM30 24C30 25.654 28.654 27 27 27H5C3.346 27 2 25.654 2 24V8C2 6.346 3.346 5 5 5H27C28.654 5 30 6.346 30 8V24Z" fill="black"/>
<path opacity="0.2" d="M27 5H5C3.343 5 2 6.343 2 8V9C2 7.343 3.343 6 5 6H27C28.657 6 30 7.343 30 9V8C30 6.343 28.657 5 27 5Z" fill="white"/>
<path d="M4.60081 7.46289L5.19281 7.03289H4.46181L4.23581 6.33789L4.00981 7.03289H3.27881L3.86981 7.46289L3.64381 8.15789L4.23581 7.72889L4.82681 8.15789L4.60081 7.46289Z" fill="white"/>
<path d="M7.57981 7.46289L8.17181 7.03289H7.44081L7.21481 6.33789L6.98881 7.03289H6.25781L6.84881 7.46289L6.62281 8.15789L7.21481 7.72889L7.80581 8.15789L7.57981 7.46289Z" fill="white"/>
<path d="M10.5598 7.46289L11.1508 7.03289H10.4198L10.1938 6.33789L9.96782 7.03289H9.23682L9.82782 7.46289L9.60282 8.15789L10.1938 7.72889L10.7848 8.15789L10.5598 7.46289Z" fill="white"/>
<path d="M6.06614 9.28296L6.65814 8.85396H5.92714L5.70114 8.15796L5.47514 8.85396H4.74414L5.33514 9.28296L5.10914 9.97896L5.70114 9.54896L6.29214 9.97896L6.06614 9.28296Z" fill="white"/>
<path d="M9.04614 9.28296L9.63714 8.85396H8.90614L8.68014 8.15796L8.45414 8.85396H7.72314L8.31414 9.28296L8.08914 9.97896L8.68014 9.54896L9.27114 9.97896L9.04614 9.28296Z" fill="white"/>
<path d="M12.0251 9.28296L12.6161 8.85396H11.8851L11.6591 8.15796L11.4331 8.85396H10.7021L11.2941 9.28296L11.0681 9.97896L11.6591 9.54896L12.2511 9.97896L12.0251 9.28296Z" fill="white"/>
<path d="M6.06614 12.9241L6.65814 12.4941H5.92714L5.70114 11.7991L5.47514 12.4941H4.74414L5.33514 12.9241L5.10914 13.6191L5.70114 13.1901L6.29214 13.6191L6.06614 12.9241Z" fill="white"/>
<path d="M9.04614 12.9241L9.63714 12.4941H8.90614L8.68014 11.7991L8.45414 12.4941H7.72314L8.31414 12.9241L8.08914 13.6191L8.68014 13.1901L9.27114 13.6191L9.04614 12.9241Z" fill="white"/>
<path d="M12.0251 12.9241L12.6161 12.4941H11.8851L11.6591 11.7991L11.4331 12.4941H10.7021L11.2941 12.9241L11.0681 13.6191L11.6591 13.1901L12.2511 13.6191L12.0251 12.9241Z" fill="white"/>
<path d="M13.5388 7.46289L14.1298 7.03289H13.3988L13.1728 6.33789L12.9468 7.03289H12.2158L12.8078 7.46289L12.5818 8.15789L13.1728 7.72889L13.7648 8.15789L13.5388 7.46289Z" fill="white"/>
<path d="M4.60081 11.104L5.19281 10.674H4.46181L4.23581 9.979L4.00981 10.674H3.27881L3.86981 11.104L3.64381 11.799L4.23581 11.369L4.82681 11.799L4.60081 11.104Z" fill="white"/>
<path d="M7.57981 11.104L8.17181 10.674H7.44081L7.21481 9.979L6.98881 10.674H6.25781L6.84881 11.104L6.62281 11.799L7.21481 11.369L7.80581 11.799L7.57981 11.104Z" fill="white"/>
<path d="M10.5598 11.104L11.1508 10.674H10.4198L10.1938 9.979L9.96782 10.674H9.23682L9.82782 11.104L9.60282 11.799L10.1938 11.369L10.7848 11.799L10.5598 11.104Z" fill="white"/>
<path d="M13.5388 11.104L14.1298 10.674H13.3988L13.1728 9.979L12.9468 10.674H12.2158L12.8078 11.104L12.5818 11.799L13.1728 11.369L13.7648 11.799L13.5388 11.104Z" fill="white"/>
<path d="M4.60081 14.7439L5.19281 14.3149H4.46181L4.23581 13.6189L4.00981 14.3149H3.27881L3.86981 14.7439L3.64381 15.4399L4.23581 15.0099L4.82681 15.4399L4.60081 14.7439Z" fill="white"/>
<path d="M7.57981 14.7439L8.17181 14.3149H7.44081L7.21481 13.6189L6.98881 14.3149H6.25781L6.84881 14.7439L6.62281 15.4399L7.21481 15.0099L7.80581 15.4399L7.57981 14.7439Z" fill="white"/>
<path d="M10.5598 14.7439L11.1508 14.3149H10.4198L10.1938 13.6189L9.96782 14.3149H9.23682L9.82782 14.7439L9.60282 15.4399L10.1938 15.0099L10.7848 15.4399L10.5598 14.7439Z" fill="white"/>
<path d="M13.5388 14.7439L14.1298 14.3149H13.3988L13.1728 13.6189L12.9468 14.3149H12.2158L12.8078 14.7439L12.5818 15.4399L13.1728 15.0099L13.7648 15.4399L13.5388 14.7439Z" fill="white"/>
</svg>
