<svg width="32" height="32" viewBox="0 0 32 32" fill="none" xmlns="http://www.w3.org/2000/svg">
<path d="M1 11H31V21H1V11Z" fill="white"/>
<path d="M5 4H27C29.208 4 31 5.792 31 8V12H1V8C1 5.792 2.792 4 5 4Z" fill="#4498B3"/>
<path d="M27 28L5 28C2.792 28 1 26.208 1 24V20L31 20V24C31 26.208 29.208 28 27 28Z" fill="#55B44B"/>
<path d="M1 12H31V13H1V12Z" fill="#BE2A2C"/>
<path d="M1 19H31V20H1V19Z" fill="#BE2A2C"/>
<path opacity="0.15" d="M27 4H5C2.791 4 1 5.791 1 8V24C1 26.209 2.791 28 5 28H27C29.209 28 31 26.209 31 24V8C31 5.791 29.209 4 27 4ZM30 24C30 25.654 28.654 27 27 27H5C3.346 27 2 25.654 2 24V8C2 6.346 3.346 5 5 5H27C28.654 5 30 6.346 30 8V24Z" fill="black"/>
<path opacity="0.2" d="M27 5H5C3.343 5 2 6.343 2 8V9C2 7.343 3.343 6 5 6H27C28.657 6 30 7.343 30 9V8C30 6.343 28.657 5 27 5Z" fill="white"/>
<path d="M7.41696 6.51005C7.28996 6.48905 7.15996 6.47705 7.02696 6.47705C5.73596 6.47705 4.68896 7.52405 4.68896 8.81505C4.68896 10.1061 5.73596 11.1531 7.02696 11.1531C7.15996 11.1531 7.28996 11.1411 7.41696 11.1201C6.31196 10.9341 5.46896 9.97405 5.46896 8.81505C5.46896 7.65605 6.31196 6.69605 7.41696 6.51005Z" fill="white"/>
<path d="M9.74099 10.181L9.56399 9.63501L9.38699 10.181H8.81299L9.27699 10.518L9.09999 11.063L9.56399 10.726L10.028 11.063L9.85099 10.518L10.315 10.181H9.74099Z" fill="white"/>
<path d="M12.8992 10.181L12.7222 9.63501L12.5442 10.181H11.9712L12.4352 10.518L12.2582 11.063L12.7222 10.726L13.1862 11.063L13.0092 10.518L13.4732 10.181H12.8992Z" fill="white"/>
<path d="M12.7222 6.47705L12.5442 7.02305H11.9712L12.4352 7.36005L12.2582 7.90505L12.7222 7.56805L13.1862 7.90505L13.0092 7.36005L13.4732 7.02305H12.8992L12.7222 6.47705Z" fill="white"/>
</svg>
